<mxfile host="app.diagrams.net" modified="2023-07-23T19:55:24.577Z" agent="Mozilla/5.0 (Windows NT 10.0; Win64; x64) AppleWebKit/537.36 (KHTML, like Gecko) Chrome/113.0.0.0 Safari/537.36 OPR/99.0.0.0" etag="8inUt-xLgb5nYiV8RoCV" version="21.6.5" type="device">
  <diagram name="Page-1" id="2C0g_hmjmGTa55idOTdt">
    <mxGraphModel dx="840" dy="454" grid="1" gridSize="10" guides="1" tooltips="1" connect="1" arrows="1" fold="1" page="1" pageScale="1" pageWidth="850" pageHeight="1100" math="0" shadow="0">
      <root>
        <mxCell id="0" />
        <mxCell id="1" parent="0" />
        <mxCell id="hN9CqaOS5fhVVAMX-T8h-3" value="" style="edgeStyle=orthogonalEdgeStyle;rounded=0;orthogonalLoop=1;jettySize=auto;html=1;" edge="1" parent="1" source="hN9CqaOS5fhVVAMX-T8h-1" target="hN9CqaOS5fhVVAMX-T8h-2">
          <mxGeometry relative="1" as="geometry" />
        </mxCell>
        <mxCell id="hN9CqaOS5fhVVAMX-T8h-1" value="START" style="ellipse;whiteSpace=wrap;html=1;" vertex="1" parent="1">
          <mxGeometry x="305" width="135" height="60" as="geometry" />
        </mxCell>
        <mxCell id="hN9CqaOS5fhVVAMX-T8h-18" value="" style="edgeStyle=orthogonalEdgeStyle;rounded=0;orthogonalLoop=1;jettySize=auto;html=1;" edge="1" parent="1" source="hN9CqaOS5fhVVAMX-T8h-2" target="hN9CqaOS5fhVVAMX-T8h-4">
          <mxGeometry relative="1" as="geometry" />
        </mxCell>
        <mxCell id="hN9CqaOS5fhVVAMX-T8h-2" value="&lt;font style=&quot;font-size: 16px;&quot;&gt;Identify Job opening&lt;/font&gt;" style="rounded=1;whiteSpace=wrap;html=1;" vertex="1" parent="1">
          <mxGeometry x="227.5" y="90" width="290" height="60" as="geometry" />
        </mxCell>
        <mxCell id="hN9CqaOS5fhVVAMX-T8h-21" value="" style="edgeStyle=orthogonalEdgeStyle;rounded=0;orthogonalLoop=1;jettySize=auto;html=1;" edge="1" parent="1" source="hN9CqaOS5fhVVAMX-T8h-4" target="hN9CqaOS5fhVVAMX-T8h-5">
          <mxGeometry relative="1" as="geometry" />
        </mxCell>
        <mxCell id="hN9CqaOS5fhVVAMX-T8h-4" value="&lt;font style=&quot;font-size: 16px;&quot;&gt;Define job requirement&lt;/font&gt;" style="rounded=1;whiteSpace=wrap;html=1;" vertex="1" parent="1">
          <mxGeometry x="227.5" y="180" width="290" height="60" as="geometry" />
        </mxCell>
        <mxCell id="hN9CqaOS5fhVVAMX-T8h-22" value="" style="edgeStyle=orthogonalEdgeStyle;rounded=0;orthogonalLoop=1;jettySize=auto;html=1;" edge="1" parent="1" source="hN9CqaOS5fhVVAMX-T8h-5" target="hN9CqaOS5fhVVAMX-T8h-6">
          <mxGeometry relative="1" as="geometry" />
        </mxCell>
        <mxCell id="hN9CqaOS5fhVVAMX-T8h-5" value="&lt;font style=&quot;font-size: 16px;&quot;&gt;Post Job advertisement&lt;/font&gt;" style="rounded=1;whiteSpace=wrap;html=1;" vertex="1" parent="1">
          <mxGeometry x="226.25" y="270" width="292.5" height="60" as="geometry" />
        </mxCell>
        <mxCell id="hN9CqaOS5fhVVAMX-T8h-23" value="" style="edgeStyle=orthogonalEdgeStyle;rounded=0;orthogonalLoop=1;jettySize=auto;html=1;" edge="1" parent="1" source="hN9CqaOS5fhVVAMX-T8h-6" target="hN9CqaOS5fhVVAMX-T8h-7">
          <mxGeometry relative="1" as="geometry" />
        </mxCell>
        <mxCell id="hN9CqaOS5fhVVAMX-T8h-6" value="&lt;font style=&quot;font-size: 16px;&quot;&gt;Job Application Receive&lt;/font&gt;" style="rounded=1;whiteSpace=wrap;html=1;" vertex="1" parent="1">
          <mxGeometry x="227.5" y="360" width="290" height="60" as="geometry" />
        </mxCell>
        <mxCell id="hN9CqaOS5fhVVAMX-T8h-24" value="" style="edgeStyle=orthogonalEdgeStyle;rounded=0;orthogonalLoop=1;jettySize=auto;html=1;" edge="1" parent="1" source="hN9CqaOS5fhVVAMX-T8h-7" target="hN9CqaOS5fhVVAMX-T8h-8">
          <mxGeometry relative="1" as="geometry" />
        </mxCell>
        <mxCell id="hN9CqaOS5fhVVAMX-T8h-25" value="" style="edgeStyle=orthogonalEdgeStyle;rounded=0;orthogonalLoop=1;jettySize=auto;html=1;" edge="1" parent="1" source="hN9CqaOS5fhVVAMX-T8h-7" target="hN9CqaOS5fhVVAMX-T8h-9">
          <mxGeometry relative="1" as="geometry" />
        </mxCell>
        <mxCell id="hN9CqaOS5fhVVAMX-T8h-7" value="&lt;font style=&quot;font-size: 16px;&quot;&gt;Review Application&lt;/font&gt;" style="rhombus;whiteSpace=wrap;html=1;" vertex="1" parent="1">
          <mxGeometry x="237.5" y="450" width="270" height="140" as="geometry" />
        </mxCell>
        <mxCell id="hN9CqaOS5fhVVAMX-T8h-8" value="Not Shortlisted" style="rounded=1;whiteSpace=wrap;html=1;" vertex="1" parent="1">
          <mxGeometry x="570" y="490" width="250" height="60" as="geometry" />
        </mxCell>
        <mxCell id="hN9CqaOS5fhVVAMX-T8h-26" value="" style="edgeStyle=orthogonalEdgeStyle;rounded=0;orthogonalLoop=1;jettySize=auto;html=1;" edge="1" parent="1" source="hN9CqaOS5fhVVAMX-T8h-9" target="hN9CqaOS5fhVVAMX-T8h-10">
          <mxGeometry relative="1" as="geometry" />
        </mxCell>
        <mxCell id="hN9CqaOS5fhVVAMX-T8h-9" value="&lt;font style=&quot;font-size: 16px;&quot;&gt;Conduct Interview&lt;/font&gt;" style="rounded=1;whiteSpace=wrap;html=1;" vertex="1" parent="1">
          <mxGeometry x="227.5" y="620" width="290" height="60" as="geometry" />
        </mxCell>
        <mxCell id="hN9CqaOS5fhVVAMX-T8h-27" value="" style="edgeStyle=orthogonalEdgeStyle;rounded=0;orthogonalLoop=1;jettySize=auto;html=1;" edge="1" parent="1" source="hN9CqaOS5fhVVAMX-T8h-10" target="hN9CqaOS5fhVVAMX-T8h-11">
          <mxGeometry relative="1" as="geometry" />
        </mxCell>
        <mxCell id="hN9CqaOS5fhVVAMX-T8h-28" value="" style="edgeStyle=orthogonalEdgeStyle;rounded=0;orthogonalLoop=1;jettySize=auto;html=1;" edge="1" parent="1" source="hN9CqaOS5fhVVAMX-T8h-10" target="hN9CqaOS5fhVVAMX-T8h-13">
          <mxGeometry relative="1" as="geometry" />
        </mxCell>
        <mxCell id="hN9CqaOS5fhVVAMX-T8h-10" value="&lt;font style=&quot;font-size: 16px;&quot;&gt;Evaluation.&lt;/font&gt;" style="rhombus;whiteSpace=wrap;html=1;" vertex="1" parent="1">
          <mxGeometry x="247.5" y="710" width="250" height="140" as="geometry" />
        </mxCell>
        <mxCell id="hN9CqaOS5fhVVAMX-T8h-11" value="&lt;font style=&quot;font-size: 16px;&quot;&gt;Not up-to the mark&lt;/font&gt;" style="rounded=1;whiteSpace=wrap;html=1;" vertex="1" parent="1">
          <mxGeometry x="580" y="750" width="240" height="60" as="geometry" />
        </mxCell>
        <mxCell id="hN9CqaOS5fhVVAMX-T8h-12" value="&lt;font style=&quot;font-size: 16px;&quot;&gt;Not Selected&lt;/font&gt;" style="rounded=1;whiteSpace=wrap;html=1;" vertex="1" parent="1">
          <mxGeometry x="580" y="910" width="240" height="60" as="geometry" />
        </mxCell>
        <mxCell id="hN9CqaOS5fhVVAMX-T8h-29" value="" style="edgeStyle=orthogonalEdgeStyle;rounded=0;orthogonalLoop=1;jettySize=auto;html=1;" edge="1" parent="1" source="hN9CqaOS5fhVVAMX-T8h-13" target="hN9CqaOS5fhVVAMX-T8h-12">
          <mxGeometry relative="1" as="geometry" />
        </mxCell>
        <mxCell id="hN9CqaOS5fhVVAMX-T8h-30" value="" style="edgeStyle=orthogonalEdgeStyle;rounded=0;orthogonalLoop=1;jettySize=auto;html=1;" edge="1" parent="1" source="hN9CqaOS5fhVVAMX-T8h-13" target="hN9CqaOS5fhVVAMX-T8h-14">
          <mxGeometry relative="1" as="geometry" />
        </mxCell>
        <mxCell id="hN9CqaOS5fhVVAMX-T8h-13" value="&lt;font style=&quot;font-size: 16px;&quot;&gt;Reference Check&lt;/font&gt;" style="rhombus;whiteSpace=wrap;html=1;" vertex="1" parent="1">
          <mxGeometry x="237.5" y="870" width="270" height="140" as="geometry" />
        </mxCell>
        <mxCell id="hN9CqaOS5fhVVAMX-T8h-31" value="" style="edgeStyle=orthogonalEdgeStyle;rounded=0;orthogonalLoop=1;jettySize=auto;html=1;" edge="1" parent="1" source="hN9CqaOS5fhVVAMX-T8h-14" target="hN9CqaOS5fhVVAMX-T8h-15">
          <mxGeometry relative="1" as="geometry" />
        </mxCell>
        <mxCell id="hN9CqaOS5fhVVAMX-T8h-14" value="&lt;font style=&quot;font-size: 16px;&quot;&gt;Selected Candidate&lt;/font&gt;" style="rounded=1;whiteSpace=wrap;html=1;" vertex="1" parent="1">
          <mxGeometry x="232.5" y="1040" width="280" height="60" as="geometry" />
        </mxCell>
        <mxCell id="hN9CqaOS5fhVVAMX-T8h-32" value="" style="edgeStyle=orthogonalEdgeStyle;rounded=0;orthogonalLoop=1;jettySize=auto;html=1;" edge="1" parent="1" source="hN9CqaOS5fhVVAMX-T8h-15" target="hN9CqaOS5fhVVAMX-T8h-16">
          <mxGeometry relative="1" as="geometry" />
        </mxCell>
        <mxCell id="hN9CqaOS5fhVVAMX-T8h-15" value="&lt;font style=&quot;font-size: 16px;&quot;&gt;Offer Letter&lt;/font&gt;" style="rounded=1;whiteSpace=wrap;html=1;" vertex="1" parent="1">
          <mxGeometry x="232.5" y="1130" width="280" height="60" as="geometry" />
        </mxCell>
        <mxCell id="hN9CqaOS5fhVVAMX-T8h-33" value="" style="edgeStyle=orthogonalEdgeStyle;rounded=0;orthogonalLoop=1;jettySize=auto;html=1;" edge="1" parent="1" source="hN9CqaOS5fhVVAMX-T8h-16" target="hN9CqaOS5fhVVAMX-T8h-17">
          <mxGeometry relative="1" as="geometry" />
        </mxCell>
        <mxCell id="hN9CqaOS5fhVVAMX-T8h-16" value="&lt;font style=&quot;font-size: 16px;&quot;&gt;Acceptance Letter&lt;/font&gt;" style="rounded=1;whiteSpace=wrap;html=1;" vertex="1" parent="1">
          <mxGeometry x="232.5" y="1210" width="280" height="60" as="geometry" />
        </mxCell>
        <mxCell id="hN9CqaOS5fhVVAMX-T8h-17" value="&lt;font style=&quot;font-size: 16px;&quot;&gt;END&lt;/font&gt;" style="ellipse;whiteSpace=wrap;html=1;" vertex="1" parent="1">
          <mxGeometry x="312.5" y="1300" width="120" height="80" as="geometry" />
        </mxCell>
        <mxCell id="hN9CqaOS5fhVVAMX-T8h-34" value="Yes&lt;br&gt;" style="text;html=1;strokeColor=none;fillColor=none;align=center;verticalAlign=middle;whiteSpace=wrap;rounded=0;" vertex="1" parent="1">
          <mxGeometry x="390" y="60" width="60" height="30" as="geometry" />
        </mxCell>
        <mxCell id="hN9CqaOS5fhVVAMX-T8h-35" value="Yes&lt;br&gt;" style="text;html=1;strokeColor=none;fillColor=none;align=center;verticalAlign=middle;whiteSpace=wrap;rounded=0;" vertex="1" parent="1">
          <mxGeometry x="390" y="150" width="60" height="30" as="geometry" />
        </mxCell>
        <mxCell id="hN9CqaOS5fhVVAMX-T8h-37" value="Yes&lt;br&gt;" style="text;html=1;strokeColor=none;fillColor=none;align=center;verticalAlign=middle;whiteSpace=wrap;rounded=0;" vertex="1" parent="1">
          <mxGeometry x="390" y="240" width="60" height="30" as="geometry" />
        </mxCell>
        <mxCell id="hN9CqaOS5fhVVAMX-T8h-38" value="Yes&lt;br&gt;" style="text;html=1;strokeColor=none;fillColor=none;align=center;verticalAlign=middle;whiteSpace=wrap;rounded=0;" vertex="1" parent="1">
          <mxGeometry x="390" y="330" width="60" height="30" as="geometry" />
        </mxCell>
        <mxCell id="hN9CqaOS5fhVVAMX-T8h-39" value="Yes&lt;br&gt;" style="text;html=1;strokeColor=none;fillColor=none;align=center;verticalAlign=middle;whiteSpace=wrap;rounded=0;" vertex="1" parent="1">
          <mxGeometry x="390" y="420" width="60" height="30" as="geometry" />
        </mxCell>
        <mxCell id="hN9CqaOS5fhVVAMX-T8h-40" value="Yes&lt;br&gt;" style="text;html=1;strokeColor=none;fillColor=none;align=center;verticalAlign=middle;whiteSpace=wrap;rounded=0;" vertex="1" parent="1">
          <mxGeometry x="390" y="590" width="60" height="30" as="geometry" />
        </mxCell>
        <mxCell id="hN9CqaOS5fhVVAMX-T8h-41" value="Yes&lt;br&gt;" style="text;html=1;strokeColor=none;fillColor=none;align=center;verticalAlign=middle;whiteSpace=wrap;rounded=0;" vertex="1" parent="1">
          <mxGeometry x="390" y="690" width="60" height="30" as="geometry" />
        </mxCell>
        <mxCell id="hN9CqaOS5fhVVAMX-T8h-42" value="Yes&lt;br&gt;" style="text;html=1;strokeColor=none;fillColor=none;align=center;verticalAlign=middle;whiteSpace=wrap;rounded=0;" vertex="1" parent="1">
          <mxGeometry x="390" y="850" width="60" height="30" as="geometry" />
        </mxCell>
        <mxCell id="hN9CqaOS5fhVVAMX-T8h-43" value="Yes&lt;br&gt;" style="text;html=1;strokeColor=none;fillColor=none;align=center;verticalAlign=middle;whiteSpace=wrap;rounded=0;" vertex="1" parent="1">
          <mxGeometry x="390" y="1000" width="60" height="30" as="geometry" />
        </mxCell>
        <mxCell id="hN9CqaOS5fhVVAMX-T8h-44" value="Yes&lt;br&gt;" style="text;html=1;strokeColor=none;fillColor=none;align=center;verticalAlign=middle;whiteSpace=wrap;rounded=0;" vertex="1" parent="1">
          <mxGeometry x="390" y="1100" width="60" height="30" as="geometry" />
        </mxCell>
        <mxCell id="hN9CqaOS5fhVVAMX-T8h-45" value="Yes&lt;br&gt;" style="text;html=1;strokeColor=none;fillColor=none;align=center;verticalAlign=middle;whiteSpace=wrap;rounded=0;" vertex="1" parent="1">
          <mxGeometry x="390" y="1190" width="60" height="30" as="geometry" />
        </mxCell>
        <mxCell id="hN9CqaOS5fhVVAMX-T8h-46" value="Yes&lt;br&gt;" style="text;html=1;strokeColor=none;fillColor=none;align=center;verticalAlign=middle;whiteSpace=wrap;rounded=0;" vertex="1" parent="1">
          <mxGeometry x="390" y="1280" width="60" height="30" as="geometry" />
        </mxCell>
        <mxCell id="hN9CqaOS5fhVVAMX-T8h-47" value="No" style="text;html=1;strokeColor=none;fillColor=none;align=center;verticalAlign=middle;whiteSpace=wrap;rounded=0;" vertex="1" parent="1">
          <mxGeometry x="510" y="900" width="60" height="30" as="geometry" />
        </mxCell>
        <mxCell id="hN9CqaOS5fhVVAMX-T8h-49" value="No" style="text;html=1;strokeColor=none;fillColor=none;align=center;verticalAlign=middle;whiteSpace=wrap;rounded=0;" vertex="1" parent="1">
          <mxGeometry x="512.5" y="750" width="60" height="30" as="geometry" />
        </mxCell>
        <mxCell id="hN9CqaOS5fhVVAMX-T8h-52" value="No" style="text;html=1;strokeColor=none;fillColor=none;align=center;verticalAlign=middle;whiteSpace=wrap;rounded=0;" vertex="1" parent="1">
          <mxGeometry x="510" y="490" width="60" height="30" as="geometry" />
        </mxCell>
      </root>
    </mxGraphModel>
  </diagram>
</mxfile>
